<svg xmlns="http://www.w3.org/2000/svg" xmlns:xlink="http://www.w3.org/1999/xlink" width="300" zoomAndPan="magnify" viewBox="0 0 224.87999 74.999997" height="100" preserveAspectRatio="xMidYMid meet" version="1.0"><defs><g/><clipPath id="72ceb4ab88"><path d="M 19 24 L 49 24 L 49 74.980469 L 19 74.980469 Z M 19 24 " clip-rule="nonzero"/></clipPath><clipPath id="ef6900a50f"><path d="M 0 0.0195312 L 49 0.0195312 L 49 51 L 0 51 Z M 0 0.0195312 " clip-rule="nonzero"/></clipPath><clipPath id="1eb25cadb0"><path d="M 19 0.0195312 L 46 0.0195312 L 46 51 L 19 51 Z M 19 0.0195312 " clip-rule="nonzero"/></clipPath><clipPath id="32ddaee35f"><path d="M 22 24 L 68.214844 24 L 68.214844 74.980469 L 22 74.980469 Z M 22 24 " clip-rule="nonzero"/></clipPath></defs><g clip-path="url(#72ceb4ab88)"><path fill="#004aad" d="M 44.40625 24.273438 C 44.855469 24.605469 45.5 25.1875 46.148438 26.023438 C 48.550781 29.121094 51.011719 35.660156 44.046875 45.285156 C 37.003906 55.023438 20.679688 62.800781 25.753906 74.976562 C 25.753906 74.976562 18.890625 72.261719 19.664062 62.820312 C 20.105469 57.464844 23.464844 52.882812 27.613281 48.71875 L 24.691406 48.71875 C 24.03125 48.71875 23.488281 48.179688 23.488281 47.519531 C 23.488281 46.859375 24.03125 46.316406 24.691406 46.316406 L 30.132812 46.316406 C 30.636719 45.851562 31.148438 45.394531 31.660156 44.941406 L 25.742188 44.941406 C 25.082031 44.941406 24.539062 44.398438 24.539062 43.738281 C 24.539062 43.078125 25.078125 42.535156 25.742188 42.535156 L 34.410156 42.535156 C 34.945312 42.074219 35.46875 41.617188 35.988281 41.160156 L 28.457031 41.160156 C 27.792969 41.160156 27.253906 40.621094 27.253906 39.957031 C 27.253906 39.296875 27.792969 38.757812 28.457031 38.757812 L 38.65625 38.757812 C 39.148438 38.296875 39.628906 37.839844 40.082031 37.382812 L 32.425781 37.382812 C 31.765625 37.382812 31.222656 36.839844 31.222656 36.179688 C 31.222656 35.519531 31.765625 34.976562 32.425781 34.976562 L 42.289062 34.976562 C 42.667969 34.519531 43.019531 34.0625 43.335938 33.601562 L 36.851562 33.601562 C 36.191406 33.601562 35.648438 33.0625 35.648438 32.398438 C 35.648438 31.738281 36.191406 31.199219 36.851562 31.199219 L 44.695312 31.199219 C 44.890625 30.742188 45.050781 30.28125 45.167969 29.824219 L 41.03125 29.824219 C 40.371094 29.824219 39.828125 29.285156 39.828125 28.621094 C 39.828125 27.960938 40.367188 27.417969 41.03125 27.417969 L 45.382812 27.417969 C 45.296875 26.394531 44.988281 25.347656 44.40625 24.273438 Z M 44.40625 24.273438 " fill-opacity="1" fill-rule="nonzero"/></g><g clip-path="url(#ef6900a50f)"><path fill="#7ed957" d="M 23.808594 50.726562 C 23.355469 50.394531 22.710938 49.8125 22.066406 48.976562 C 19.8125 46.074219 17.511719 40.144531 22.96875 31.484375 C 22.96875 31.480469 22.96875 31.480469 22.972656 31.476562 C 22.96875 31.480469 22.964844 31.484375 22.964844 31.484375 C 18.925781 36.628906 17.4375 42.914062 18.953125 48.203125 L 3.3125 48.203125 C 1.496094 48.203125 0.0078125 46.71875 0.0078125 44.90625 L 0.0078125 30.089844 C 0.0078125 28.277344 1.496094 26.792969 3.3125 26.792969 L 17.59375 26.792969 C 20.78125 26.792969 23.390625 24.1875 23.390625 21.007812 L 23.390625 6.746094 C 23.390625 4.933594 24.875 3.449219 26.691406 3.449219 L 40.808594 3.449219 C 41.15625 5.882812 41.277344 12.089844 35.21875 18.457031 C 35.21875 18.460938 35.265625 18.414062 35.269531 18.410156 C 40.933594 12.945312 45.480469 7.261719 42.460938 0.0195312 C 42.460938 0.0195312 49.328125 2.734375 48.550781 12.179688 C 47.164062 28.996094 17 38.214844 23.808594 50.726562 Z M 23.808594 50.726562 " fill-opacity="1" fill-rule="nonzero"/></g><g clip-path="url(#1eb25cadb0)"><path fill="#008037" d="M 23.808594 50.726562 C 23.355469 50.394531 22.710938 49.808594 22.066406 48.976562 C 19.664062 45.878906 17.203125 39.339844 24.164062 29.714844 C 31.210938 19.976562 47.539062 12.199219 42.460938 0.0234375 C 57.605469 20.617188 12.835938 30.800781 23.808594 50.726562 Z M 23.808594 50.726562 " fill-opacity="1" fill-rule="nonzero"/></g><g clip-path="url(#32ddaee35f)"><path fill="#004aad" d="M 68.207031 30.09375 L 68.207031 44.90625 C 68.207031 46.71875 66.71875 48.203125 64.902344 48.203125 L 50.621094 48.203125 C 47.433594 48.203125 44.824219 50.808594 44.824219 53.992188 L 44.824219 68.253906 C 44.824219 70.070312 43.335938 71.554688 41.519531 71.554688 L 27.40625 71.554688 C 27.058594 69.121094 26.9375 62.910156 32.992188 56.542969 C 32.992188 56.542969 32.792969 56.734375 32.773438 56.753906 C 27.191406 62.167969 22.761719 67.8125 25.75 74.980469 C 10.605469 54.382812 55.375 44.203125 44.402344 24.273438 C 44.855469 24.605469 45.5 25.191406 46.144531 26.023438 C 48.398438 28.925781 50.703125 34.855469 45.242188 43.519531 C 49.285156 38.375 50.777344 32.085938 49.257812 26.796875 L 64.902344 26.796875 C 66.71875 26.796875 68.207031 28.28125 68.207031 30.09375 Z M 68.207031 30.09375 " fill-opacity="1" fill-rule="nonzero"/></g><g fill="#ffffff" fill-opacity="1"><g transform="translate(82.246838, 25.006691)"><g><path d="M 11.453125 -5.15625 C 11.828125 -5.15625 12.109375 -5.078125 12.296875 -4.921875 C 12.492188 -4.773438 12.59375 -4.5625 12.59375 -4.28125 C 12.59375 -4.15625 12.570312 -4.019531 12.53125 -3.875 L 11.875 -1.53125 C 11.695312 -0.957031 11.453125 -0.554688 11.140625 -0.328125 C 10.828125 -0.109375 10.363281 0 9.75 0 L 0.359375 0 C 0.078125 0 -0.132812 -0.046875 -0.28125 -0.140625 C -0.4375 -0.234375 -0.515625 -0.359375 -0.515625 -0.515625 C -0.515625 -0.597656 -0.492188 -0.6875 -0.453125 -0.78125 C -0.421875 -0.882812 -0.359375 -0.972656 -0.265625 -1.046875 C -0.171875 -1.117188 -0.0664062 -1.191406 0.046875 -1.265625 C 0.253906 -1.390625 0.425781 -1.519531 0.5625 -1.65625 C 0.695312 -1.800781 0.8125 -2.035156 0.90625 -2.359375 L 3.34375 -10.96875 C 3.394531 -11.144531 3.421875 -11.3125 3.421875 -11.46875 C 3.421875 -11.613281 3.394531 -11.734375 3.34375 -11.828125 C 3.300781 -11.929688 3.238281 -12.050781 3.15625 -12.1875 C 3.039062 -12.363281 2.984375 -12.503906 2.984375 -12.609375 C 2.984375 -12.648438 2.992188 -12.722656 3.015625 -12.828125 C 3.066406 -13.003906 3.179688 -13.128906 3.359375 -13.203125 C 3.546875 -13.273438 3.828125 -13.3125 4.203125 -13.3125 L 8.890625 -13.3125 C 9.171875 -13.3125 9.382812 -13.265625 9.53125 -13.171875 C 9.6875 -13.085938 9.765625 -12.96875 9.765625 -12.8125 C 9.765625 -12.738281 9.75 -12.648438 9.71875 -12.546875 C 9.675781 -12.453125 9.617188 -12.367188 9.546875 -12.296875 C 9.472656 -12.222656 9.40625 -12.171875 9.34375 -12.140625 C 9.28125 -12.109375 9.238281 -12.078125 9.21875 -12.046875 C 9 -11.929688 8.820312 -11.800781 8.6875 -11.65625 C 8.5625 -11.507812 8.453125 -11.28125 8.359375 -10.96875 L 5.78125 -1.921875 L 7.015625 -1.921875 C 7.316406 -1.921875 7.578125 -1.972656 7.796875 -2.078125 C 8.023438 -2.179688 8.257812 -2.378906 8.5 -2.671875 L 9.875 -4.3125 C 10.125 -4.601562 10.363281 -4.816406 10.59375 -4.953125 C 10.832031 -5.085938 11.117188 -5.15625 11.453125 -5.15625 Z M 11.453125 -5.15625 "/></g></g></g><g fill="#ffffff" fill-opacity="1"><g transform="translate(95.254757, 25.006691)"><g><path d="M 7.140625 -10.578125 C 8.671875 -10.578125 9.894531 -10.289062 10.8125 -9.71875 C 11.726562 -9.15625 12.1875 -8.296875 12.1875 -7.140625 C 12.1875 -6.691406 12.109375 -6.191406 11.953125 -5.640625 L 11.125 -2.875 C 11.113281 -2.820312 11.109375 -2.753906 11.109375 -2.671875 C 11.109375 -2.460938 11.195312 -2.359375 11.375 -2.359375 C 11.53125 -2.359375 11.664062 -2.425781 11.78125 -2.5625 C 11.894531 -2.707031 11.972656 -2.78125 12.015625 -2.78125 C 12.078125 -2.78125 12.128906 -2.734375 12.171875 -2.640625 C 12.222656 -2.546875 12.25 -2.4375 12.25 -2.3125 C 12.257812 -1.957031 12.117188 -1.59375 11.828125 -1.21875 C 11.546875 -0.84375 11.164062 -0.535156 10.6875 -0.296875 C 10.207031 -0.0546875 9.679688 0.0625 9.109375 0.0625 C 8.421875 0.0625 7.828125 -0.0625 7.328125 -0.3125 C 6.835938 -0.570312 6.5 -0.945312 6.3125 -1.4375 C 5.914062 -0.957031 5.441406 -0.585938 4.890625 -0.328125 C 4.347656 -0.0664062 3.765625 0.0625 3.140625 0.0625 C 2.429688 0.0625 1.835938 -0.0703125 1.359375 -0.34375 C 0.878906 -0.625 0.519531 -0.976562 0.28125 -1.40625 C 0.0507812 -1.84375 -0.0625 -2.300781 -0.0625 -2.78125 C -0.0625 -2.988281 -0.0390625 -3.191406 0 -3.390625 C 0.207031 -4.316406 0.664062 -5.007812 1.375 -5.46875 C 2.09375 -5.9375 2.945312 -6.171875 3.9375 -6.171875 C 5.039062 -6.171875 6.125 -6 7.1875 -5.65625 L 7.6875 -6.96875 C 7.863281 -7.53125 7.953125 -7.96875 7.953125 -8.28125 C 7.941406 -8.59375 7.832031 -8.828125 7.625 -8.984375 C 7.425781 -9.148438 7.125 -9.234375 6.71875 -9.234375 C 6.789062 -9.015625 6.828125 -8.796875 6.828125 -8.578125 C 6.828125 -8.078125 6.640625 -7.644531 6.265625 -7.28125 C 5.898438 -6.925781 5.367188 -6.75 4.671875 -6.75 C 4.023438 -6.75 3.515625 -6.890625 3.140625 -7.171875 C 2.773438 -7.460938 2.59375 -7.820312 2.59375 -8.25 C 2.59375 -8.914062 2.96875 -9.46875 3.71875 -9.90625 C 4.46875 -10.351562 5.609375 -10.578125 7.140625 -10.578125 Z M 6.015625 -4.515625 C 5.640625 -4.515625 5.332031 -4.367188 5.09375 -4.078125 C 4.863281 -3.796875 4.75 -3.488281 4.75 -3.15625 C 4.75 -2.945312 4.800781 -2.773438 4.90625 -2.640625 C 5.007812 -2.503906 5.148438 -2.4375 5.328125 -2.4375 C 5.503906 -2.4375 5.695312 -2.503906 5.90625 -2.640625 C 6.113281 -2.785156 6.265625 -3 6.359375 -3.28125 L 6.78125 -4.453125 C 6.550781 -4.492188 6.296875 -4.515625 6.015625 -4.515625 Z M 6.015625 -4.515625 "/></g></g></g><g fill="#ffffff" fill-opacity="1"><g transform="translate(108.322624, 25.006691)"><g/></g></g><g fill="#ffffff" fill-opacity="1"><g transform="translate(112.318919, 25.006691)"><g><path d="M 6.953125 0.125 C 5.835938 0.125 4.832031 -0.0820312 3.9375 -0.5 C 3.039062 -0.914062 2.328125 -1.523438 1.796875 -2.328125 C 1.273438 -3.128906 1.015625 -4.101562 1.015625 -5.25 C 1.015625 -6.050781 1.15625 -6.921875 1.4375 -7.859375 C 2.050781 -9.859375 2.976562 -11.300781 4.21875 -12.1875 C 5.457031 -13.070312 6.78125 -13.515625 8.1875 -13.515625 C 8.945312 -13.515625 9.617188 -13.398438 10.203125 -13.171875 C 10.796875 -12.941406 11.335938 -12.613281 11.828125 -12.1875 L 12.375 -12.609375 C 12.726562 -12.890625 13.03125 -13.082031 13.28125 -13.1875 C 13.53125 -13.289062 13.804688 -13.34375 14.109375 -13.34375 C 14.441406 -13.34375 14.707031 -13.269531 14.90625 -13.125 C 15.101562 -12.976562 15.203125 -12.765625 15.203125 -12.484375 C 15.203125 -12.335938 15.175781 -12.191406 15.125 -12.046875 L 14.015625 -8.9375 C 13.890625 -8.570312 13.742188 -8.316406 13.578125 -8.171875 C 13.410156 -8.023438 13.160156 -7.953125 12.828125 -7.953125 C 12.484375 -7.953125 12.203125 -8.070312 11.984375 -8.3125 C 11.765625 -8.5625 11.515625 -8.988281 11.234375 -9.59375 C 10.910156 -10.21875 10.648438 -10.628906 10.453125 -10.828125 C 10.253906 -11.023438 9.960938 -11.125 9.578125 -11.125 C 9.023438 -11.125 8.492188 -10.785156 7.984375 -10.109375 C 7.484375 -9.441406 7.023438 -8.4375 6.609375 -7.09375 C 6.265625 -5.957031 6.09375 -5.007812 6.09375 -4.25 C 6.09375 -3.582031 6.21875 -3.085938 6.46875 -2.765625 C 6.726562 -2.441406 7.070312 -2.28125 7.5 -2.28125 C 8.125 -2.28125 8.640625 -2.421875 9.046875 -2.703125 C 9.453125 -2.984375 9.867188 -3.363281 10.296875 -3.84375 C 10.554688 -4.132812 10.769531 -4.347656 10.9375 -4.484375 C 11.101562 -4.628906 11.28125 -4.703125 11.46875 -4.703125 C 11.707031 -4.703125 11.957031 -4.582031 12.21875 -4.34375 C 12.488281 -4.101562 12.617188 -3.863281 12.609375 -3.625 C 12.617188 -3.320312 12.378906 -2.863281 11.890625 -2.25 C 11.410156 -1.644531 10.738281 -1.097656 9.875 -0.609375 C 9.019531 -0.117188 8.046875 0.125 6.953125 0.125 Z M 6.953125 0.125 "/></g></g></g><g fill="#ffffff" fill-opacity="1"><g transform="translate(126.146085, 25.006691)"><g><path d="M 7.140625 -10.578125 C 8.671875 -10.578125 9.894531 -10.289062 10.8125 -9.71875 C 11.726562 -9.15625 12.1875 -8.296875 12.1875 -7.140625 C 12.1875 -6.691406 12.109375 -6.191406 11.953125 -5.640625 L 11.125 -2.875 C 11.113281 -2.820312 11.109375 -2.753906 11.109375 -2.671875 C 11.109375 -2.460938 11.195312 -2.359375 11.375 -2.359375 C 11.53125 -2.359375 11.664062 -2.425781 11.78125 -2.5625 C 11.894531 -2.707031 11.972656 -2.78125 12.015625 -2.78125 C 12.078125 -2.78125 12.128906 -2.734375 12.171875 -2.640625 C 12.222656 -2.546875 12.25 -2.4375 12.25 -2.3125 C 12.257812 -1.957031 12.117188 -1.59375 11.828125 -1.21875 C 11.546875 -0.84375 11.164062 -0.535156 10.6875 -0.296875 C 10.207031 -0.0546875 9.679688 0.0625 9.109375 0.0625 C 8.421875 0.0625 7.828125 -0.0625 7.328125 -0.3125 C 6.835938 -0.570312 6.5 -0.945312 6.3125 -1.4375 C 5.914062 -0.957031 5.441406 -0.585938 4.890625 -0.328125 C 4.347656 -0.0664062 3.765625 0.0625 3.140625 0.0625 C 2.429688 0.0625 1.835938 -0.0703125 1.359375 -0.34375 C 0.878906 -0.625 0.519531 -0.976562 0.28125 -1.40625 C 0.0507812 -1.84375 -0.0625 -2.300781 -0.0625 -2.78125 C -0.0625 -2.988281 -0.0390625 -3.191406 0 -3.390625 C 0.207031 -4.316406 0.664062 -5.007812 1.375 -5.46875 C 2.09375 -5.9375 2.945312 -6.171875 3.9375 -6.171875 C 5.039062 -6.171875 6.125 -6 7.1875 -5.65625 L 7.6875 -6.96875 C 7.863281 -7.53125 7.953125 -7.96875 7.953125 -8.28125 C 7.941406 -8.59375 7.832031 -8.828125 7.625 -8.984375 C 7.425781 -9.148438 7.125 -9.234375 6.71875 -9.234375 C 6.789062 -9.015625 6.828125 -8.796875 6.828125 -8.578125 C 6.828125 -8.078125 6.640625 -7.644531 6.265625 -7.28125 C 5.898438 -6.925781 5.367188 -6.75 4.671875 -6.75 C 4.023438 -6.75 3.515625 -6.890625 3.140625 -7.171875 C 2.773438 -7.460938 2.59375 -7.820312 2.59375 -8.25 C 2.59375 -8.914062 2.96875 -9.46875 3.71875 -9.90625 C 4.46875 -10.351562 5.609375 -10.578125 7.140625 -10.578125 Z M 6.015625 -4.515625 C 5.640625 -4.515625 5.332031 -4.367188 5.09375 -4.078125 C 4.863281 -3.796875 4.75 -3.488281 4.75 -3.15625 C 4.75 -2.945312 4.800781 -2.773438 4.90625 -2.640625 C 5.007812 -2.503906 5.148438 -2.4375 5.328125 -2.4375 C 5.503906 -2.4375 5.695312 -2.503906 5.90625 -2.640625 C 6.113281 -2.785156 6.265625 -3 6.359375 -3.28125 L 6.78125 -4.453125 C 6.550781 -4.492188 6.296875 -4.515625 6.015625 -4.515625 Z M 6.015625 -4.515625 "/></g></g></g><g fill="#ffffff" fill-opacity="1"><g transform="translate(139.213951, 25.006691)"><g><path d="M 10.453125 -10.65625 C 11.472656 -10.65625 12.273438 -10.3125 12.859375 -9.625 C 13.453125 -8.945312 13.75 -8.023438 13.75 -6.859375 C 13.75 -6.234375 13.660156 -5.570312 13.484375 -4.875 C 13.085938 -3.21875 12.34375 -1.957031 11.25 -1.09375 C 10.15625 -0.238281 8.890625 0.1875 7.453125 0.1875 C 6.535156 0.1875 5.738281 -0.0078125 5.0625 -0.40625 L 4.421875 1.734375 C 4.367188 1.878906 4.34375 2.019531 4.34375 2.15625 C 4.34375 2.300781 4.375 2.421875 4.4375 2.515625 C 4.5 2.617188 4.585938 2.71875 4.703125 2.8125 C 4.804688 2.925781 4.875 3.015625 4.90625 3.078125 C 4.9375 3.140625 4.941406 3.21875 4.921875 3.3125 C 4.867188 3.488281 4.738281 3.613281 4.53125 3.6875 C 4.332031 3.757812 4.03125 3.796875 3.625 3.796875 L -0.953125 3.796875 C -1.304688 3.796875 -1.554688 3.738281 -1.703125 3.625 C -1.859375 3.507812 -1.90625 3.367188 -1.84375 3.203125 C -1.8125 3.085938 -1.757812 3 -1.6875 2.9375 C -1.625 2.875 -1.535156 2.816406 -1.421875 2.765625 C -1.222656 2.628906 -1.0625 2.488281 -0.9375 2.34375 C -0.820312 2.207031 -0.71875 1.984375 -0.625 1.671875 L 2.296875 -7.890625 C 2.335938 -8.015625 2.359375 -8.113281 2.359375 -8.1875 C 2.359375 -8.332031 2.320312 -8.445312 2.25 -8.53125 C 2.1875 -8.625 2.085938 -8.71875 1.953125 -8.8125 C 1.828125 -8.914062 1.734375 -9.007812 1.671875 -9.09375 C 1.617188 -9.175781 1.613281 -9.28125 1.65625 -9.40625 C 1.738281 -9.71875 2.160156 -9.988281 2.921875 -10.21875 C 3.679688 -10.457031 4.472656 -10.578125 5.296875 -10.578125 C 5.878906 -10.578125 6.359375 -10.425781 6.734375 -10.125 C 7.117188 -9.832031 7.335938 -9.425781 7.390625 -8.90625 C 8.296875 -10.070312 9.316406 -10.65625 10.453125 -10.65625 Z M 8.140625 -4.71875 C 8.453125 -5.90625 8.609375 -6.722656 8.609375 -7.171875 C 8.609375 -7.453125 8.566406 -7.632812 8.484375 -7.71875 C 8.398438 -7.8125 8.273438 -7.859375 8.109375 -7.859375 C 7.992188 -7.859375 7.84375 -7.800781 7.65625 -7.6875 C 7.46875 -7.570312 7.28125 -7.378906 7.09375 -7.109375 L 5.515625 -1.875 C 5.671875 -1.71875 5.863281 -1.640625 6.09375 -1.640625 C 6.457031 -1.640625 6.800781 -1.84375 7.125 -2.25 C 7.445312 -2.65625 7.785156 -3.476562 8.140625 -4.71875 Z M 8.140625 -4.71875 "/></g></g></g><g fill="#ffffff" fill-opacity="1"><g transform="translate(153.021134, 25.006691)"><g><path d="M 6.578125 -10.75 C 7.679688 -10.75 8.632812 -10.648438 9.4375 -10.453125 C 10.25 -10.253906 10.867188 -9.972656 11.296875 -9.609375 C 11.734375 -9.253906 11.953125 -8.847656 11.953125 -8.390625 C 11.953125 -7.921875 11.769531 -7.539062 11.40625 -7.25 C 11.039062 -6.957031 10.53125 -6.8125 9.875 -6.8125 C 9.207031 -6.8125 8.644531 -6.976562 8.1875 -7.3125 C 7.726562 -7.644531 7.5 -8.066406 7.5 -8.578125 C 7.5 -8.742188 7.523438 -8.910156 7.578125 -9.078125 C 7.335938 -9.140625 7.125 -9.171875 6.9375 -9.171875 C 6.601562 -9.171875 6.328125 -9.085938 6.109375 -8.921875 C 5.890625 -8.765625 5.785156 -8.539062 5.796875 -8.25 C 5.796875 -7.90625 5.96875 -7.613281 6.3125 -7.375 C 6.65625 -7.132812 7.21875 -6.832031 8 -6.46875 C 8.664062 -6.175781 9.210938 -5.90625 9.640625 -5.65625 C 10.078125 -5.414062 10.441406 -5.109375 10.734375 -4.734375 C 11.035156 -4.359375 11.1875 -3.921875 11.1875 -3.421875 C 11.1875 -3.304688 11.160156 -3.101562 11.109375 -2.8125 C 10.898438 -1.925781 10.304688 -1.222656 9.328125 -0.703125 C 8.359375 -0.179688 7.082031 0.078125 5.5 0.078125 C 3.707031 0.078125 2.289062 -0.160156 1.25 -0.640625 C 0.207031 -1.117188 -0.3125 -1.78125 -0.3125 -2.625 C -0.3125 -3.195312 -0.140625 -3.628906 0.203125 -3.921875 C 0.546875 -4.210938 1.003906 -4.359375 1.578125 -4.359375 C 2.242188 -4.359375 2.8125 -4.148438 3.28125 -3.734375 C 3.757812 -3.328125 4 -2.800781 4 -2.15625 C 4 -1.988281 3.976562 -1.8125 3.9375 -1.625 C 4.257812 -1.539062 4.566406 -1.5 4.859375 -1.5 C 5.203125 -1.5 5.488281 -1.59375 5.71875 -1.78125 C 5.945312 -1.96875 6.0625 -2.226562 6.0625 -2.5625 C 6.039062 -2.863281 5.882812 -3.125 5.59375 -3.34375 C 5.300781 -3.5625 4.835938 -3.828125 4.203125 -4.140625 C 3.597656 -4.421875 3.101562 -4.679688 2.71875 -4.921875 C 2.332031 -5.171875 2 -5.484375 1.71875 -5.859375 C 1.445312 -6.234375 1.3125 -6.671875 1.3125 -7.171875 C 1.3125 -8.265625 1.769531 -9.132812 2.6875 -9.78125 C 3.601562 -10.425781 4.898438 -10.75 6.578125 -10.75 Z M 6.578125 -10.75 "/></g></g></g><g fill="#ffffff" fill-opacity="1"><g transform="translate(164.870134, 25.006691)"><g><path d="M 11.875 -2.765625 C 11.84375 -2.648438 11.828125 -2.566406 11.828125 -2.515625 C 11.828125 -2.421875 11.847656 -2.347656 11.890625 -2.296875 C 11.941406 -2.242188 12.007812 -2.21875 12.09375 -2.21875 C 12.25 -2.21875 12.382812 -2.285156 12.5 -2.421875 C 12.613281 -2.566406 12.691406 -2.640625 12.734375 -2.640625 C 12.796875 -2.640625 12.847656 -2.59375 12.890625 -2.5 C 12.941406 -2.414062 12.96875 -2.316406 12.96875 -2.203125 C 12.976562 -1.828125 12.84375 -1.457031 12.5625 -1.09375 C 12.289062 -0.726562 11.898438 -0.421875 11.390625 -0.171875 C 10.878906 0.0664062 10.3125 0.1875 9.6875 0.1875 C 8.90625 0.1875 8.28125 0.0234375 7.8125 -0.296875 C 7.34375 -0.617188 7.046875 -1.039062 6.921875 -1.5625 C 6.429688 -1.03125 5.894531 -0.625 5.3125 -0.34375 C 4.738281 -0.0703125 4.15625 0.0625 3.5625 0.0625 C 2.625 0.0625 1.835938 -0.164062 1.203125 -0.625 C 0.578125 -1.082031 0.265625 -1.726562 0.265625 -2.5625 C 0.265625 -2.9375 0.328125 -3.320312 0.453125 -3.71875 L 1.734375 -7.890625 C 1.773438 -8.015625 1.796875 -8.113281 1.796875 -8.1875 C 1.796875 -8.332031 1.757812 -8.445312 1.6875 -8.53125 C 1.625 -8.625 1.53125 -8.71875 1.40625 -8.8125 C 1.269531 -8.914062 1.175781 -9.007812 1.125 -9.09375 C 1.070312 -9.175781 1.0625 -9.28125 1.09375 -9.40625 C 1.175781 -9.71875 1.597656 -9.988281 2.359375 -10.21875 C 3.117188 -10.457031 3.910156 -10.578125 4.734375 -10.578125 C 5.503906 -10.578125 6.066406 -10.425781 6.421875 -10.125 C 6.785156 -9.832031 6.96875 -9.4375 6.96875 -8.9375 C 6.96875 -8.625 6.921875 -8.328125 6.828125 -8.046875 L 5.578125 -3.890625 C 5.523438 -3.742188 5.5 -3.609375 5.5 -3.484375 C 5.5 -3.296875 5.550781 -3.15625 5.65625 -3.0625 C 5.757812 -2.96875 5.898438 -2.921875 6.078125 -2.921875 C 6.328125 -2.921875 6.53125 -2.992188 6.6875 -3.140625 C 6.851562 -3.285156 7.015625 -3.53125 7.171875 -3.875 L 8.390625 -7.890625 C 8.429688 -8.015625 8.453125 -8.113281 8.453125 -8.1875 C 8.453125 -8.332031 8.414062 -8.445312 8.34375 -8.53125 C 8.28125 -8.625 8.191406 -8.71875 8.078125 -8.8125 C 7.941406 -8.914062 7.847656 -9.007812 7.796875 -9.09375 C 7.742188 -9.175781 7.738281 -9.28125 7.78125 -9.40625 C 7.84375 -9.71875 8.253906 -9.988281 9.015625 -10.21875 C 9.773438 -10.457031 10.566406 -10.578125 11.390625 -10.578125 C 12.160156 -10.578125 12.726562 -10.425781 13.09375 -10.125 C 13.46875 -9.832031 13.65625 -9.441406 13.65625 -8.953125 C 13.65625 -8.703125 13.597656 -8.398438 13.484375 -8.046875 Z M 11.875 -2.765625 "/></g></g></g><g fill="#ffffff" fill-opacity="1"><g transform="translate(178.577407, 25.006691)"><g><path d="M 6.375 -14.765625 C 7.144531 -14.765625 7.710938 -14.617188 8.078125 -14.328125 C 8.453125 -14.035156 8.640625 -13.632812 8.640625 -13.125 C 8.640625 -12.832031 8.59375 -12.546875 8.5 -12.265625 L 5.359375 -2.078125 C 5.316406 -1.921875 5.296875 -1.78125 5.296875 -1.65625 C 5.296875 -1.488281 5.328125 -1.351562 5.390625 -1.25 C 5.460938 -1.144531 5.554688 -1.046875 5.671875 -0.953125 C 5.765625 -0.859375 5.832031 -0.78125 5.875 -0.71875 C 5.914062 -0.664062 5.921875 -0.59375 5.890625 -0.5 C 5.828125 -0.320312 5.695312 -0.191406 5.5 -0.109375 C 5.300781 -0.0351562 4.992188 0 4.578125 0 L 0.015625 0 C -0.328125 0 -0.578125 -0.0546875 -0.734375 -0.171875 C -0.898438 -0.285156 -0.957031 -0.4375 -0.90625 -0.625 C -0.84375 -0.78125 -0.703125 -0.921875 -0.484375 -1.046875 C -0.285156 -1.148438 -0.117188 -1.273438 0.015625 -1.421875 C 0.148438 -1.566406 0.265625 -1.800781 0.359375 -2.125 L 3.390625 -12.09375 C 3.429688 -12.207031 3.453125 -12.304688 3.453125 -12.390625 C 3.453125 -12.535156 3.414062 -12.65625 3.34375 -12.75 C 3.269531 -12.84375 3.175781 -12.9375 3.0625 -13.03125 C 2.925781 -13.132812 2.828125 -13.222656 2.765625 -13.296875 C 2.703125 -13.378906 2.691406 -13.488281 2.734375 -13.625 C 2.816406 -13.9375 3.238281 -14.203125 4 -14.421875 C 4.757812 -14.648438 5.550781 -14.765625 6.375 -14.765625 Z M 6.375 -14.765625 "/></g></g></g><g fill="#ffffff" fill-opacity="1"><g transform="translate(185.890616, 25.006691)"><g><path d="M 6.78125 -10.671875 C 8.46875 -10.671875 9.691406 -10.398438 10.453125 -9.859375 C 11.210938 -9.316406 11.59375 -8.628906 11.59375 -7.796875 C 11.59375 -7.546875 11.566406 -7.3125 11.515625 -7.09375 C 11.316406 -6.21875 10.757812 -5.585938 9.84375 -5.203125 C 8.925781 -4.828125 7.847656 -4.640625 6.609375 -4.640625 C 5.984375 -4.640625 5.398438 -4.675781 4.859375 -4.75 C 4.847656 -4.0625 5.035156 -3.578125 5.421875 -3.296875 C 5.804688 -3.015625 6.34375 -2.875 7.03125 -2.875 C 7.351562 -2.875 7.660156 -2.910156 7.953125 -2.984375 C 8.242188 -3.054688 8.617188 -3.164062 9.078125 -3.3125 C 9.441406 -3.445312 9.691406 -3.515625 9.828125 -3.515625 C 9.972656 -3.515625 10.046875 -3.425781 10.046875 -3.25 C 10.066406 -2.789062 9.894531 -2.300781 9.53125 -1.78125 C 9.175781 -1.269531 8.644531 -0.832031 7.9375 -0.46875 C 7.226562 -0.113281 6.375 0.0625 5.375 0.0625 C 3.894531 0.0625 2.679688 -0.304688 1.734375 -1.046875 C 0.785156 -1.796875 0.3125 -2.882812 0.3125 -4.3125 C 0.3125 -4.71875 0.367188 -5.1875 0.484375 -5.71875 C 0.816406 -7.351562 1.546875 -8.585938 2.671875 -9.421875 C 3.796875 -10.253906 5.164062 -10.671875 6.78125 -10.671875 Z M 5 -5.953125 C 5.050781 -5.941406 5.125 -5.9375 5.21875 -5.9375 C 5.78125 -5.9375 6.207031 -6.195312 6.5 -6.71875 C 6.789062 -7.238281 6.929688 -7.816406 6.921875 -8.453125 C 6.898438 -8.828125 6.789062 -9.015625 6.59375 -9.015625 C 6.445312 -9.015625 6.273438 -8.894531 6.078125 -8.65625 C 5.878906 -8.425781 5.679688 -8.078125 5.484375 -7.609375 C 5.296875 -7.148438 5.132812 -6.597656 5 -5.953125 Z M 5 -5.953125 "/></g></g></g><g fill="#ffffff" fill-opacity="1"><g transform="translate(92.319586, 45.495731)"><g><path d="M 4.78125 -8.234375 L 8.109375 0 L 6.09375 0 L 5.484375 -1.640625 L 2.34375 -1.640625 L 1.734375 0 L -0.28125 0 L 3.046875 -8.234375 Z M 4.84375 -3.296875 L 3.921875 -5.6875 L 3.90625 -5.6875 L 2.984375 -3.296875 Z M 4.84375 -3.296875 "/></g></g></g><g fill="#ffffff" fill-opacity="1"><g transform="translate(100.15232, 45.495731)"><g><path d="M 0.375 1.265625 L 1.8125 0.546875 C 2.082031 0.984375 2.546875 1.203125 3.203125 1.203125 C 3.515625 1.203125 3.800781 1.101562 4.0625 0.90625 C 4.320312 0.71875 4.453125 0.421875 4.453125 0.015625 L 4.453125 -0.375 C 4.140625 -0.0195312 3.582031 0.15625 2.78125 0.15625 C 2.039062 0.15625 1.429688 -0.101562 0.953125 -0.625 C 0.472656 -1.15625 0.234375 -1.796875 0.234375 -2.546875 C 0.234375 -3.304688 0.472656 -3.945312 0.953125 -4.46875 C 1.429688 -5 2.039062 -5.265625 2.78125 -5.265625 C 3.4375 -5.265625 3.984375 -5.0625 4.421875 -4.65625 L 4.453125 -4.65625 L 4.453125 -5.125 L 6.21875 -5.125 L 6.21875 0.140625 C 6.21875 0.972656 5.941406 1.613281 5.390625 2.0625 C 4.835938 2.519531 4.109375 2.75 3.203125 2.75 C 1.742188 2.75 0.800781 2.253906 0.375 1.265625 Z M 2.453125 -3.421875 C 2.222656 -3.191406 2.109375 -2.898438 2.109375 -2.546875 C 2.109375 -2.203125 2.21875 -1.914062 2.4375 -1.6875 C 2.65625 -1.46875 2.945312 -1.359375 3.3125 -1.359375 C 3.65625 -1.359375 3.9375 -1.46875 4.15625 -1.6875 C 4.382812 -1.914062 4.5 -2.207031 4.5 -2.5625 C 4.5 -2.90625 4.378906 -3.191406 4.140625 -3.421875 C 3.910156 -3.648438 3.632812 -3.765625 3.3125 -3.765625 C 2.96875 -3.765625 2.679688 -3.648438 2.453125 -3.421875 Z M 2.453125 -3.421875 "/></g></g></g><g fill="#ffffff" fill-opacity="1"><g transform="translate(106.975983, 45.495731)"><g><path d="M 5.78125 -2.3125 L 2.0625 -2.3125 C 2.0625 -1.957031 2.175781 -1.691406 2.40625 -1.515625 C 2.644531 -1.347656 2.898438 -1.265625 3.171875 -1.265625 C 3.460938 -1.265625 3.691406 -1.300781 3.859375 -1.375 C 4.023438 -1.445312 4.210938 -1.597656 4.421875 -1.828125 L 5.703125 -1.1875 C 5.171875 -0.289062 4.285156 0.15625 3.046875 0.15625 C 2.273438 0.15625 1.613281 -0.109375 1.0625 -0.640625 C 0.507812 -1.171875 0.234375 -1.804688 0.234375 -2.546875 C 0.234375 -3.296875 0.507812 -3.9375 1.0625 -4.46875 C 1.613281 -5 2.273438 -5.265625 3.046875 -5.265625 C 3.859375 -5.265625 4.519531 -5.03125 5.03125 -4.5625 C 5.539062 -4.09375 5.796875 -3.425781 5.796875 -2.5625 C 5.796875 -2.4375 5.789062 -2.351562 5.78125 -2.3125 Z M 2.109375 -3.296875 L 4.0625 -3.296875 C 4.019531 -3.554688 3.914062 -3.757812 3.75 -3.90625 C 3.582031 -4.050781 3.363281 -4.125 3.09375 -4.125 C 2.800781 -4.125 2.566406 -4.046875 2.390625 -3.890625 C 2.222656 -3.742188 2.128906 -3.546875 2.109375 -3.296875 Z M 2.109375 -3.296875 "/></g></g></g><g fill="#ffffff" fill-opacity="1"><g transform="translate(113.000394, 45.495731)"><g><path d="M 0.59375 0 L 0.59375 -5.125 L 2.359375 -5.125 L 2.359375 -4.578125 L 2.390625 -4.578125 C 2.847656 -5.035156 3.335938 -5.265625 3.859375 -5.265625 C 4.109375 -5.265625 4.359375 -5.234375 4.609375 -5.171875 C 4.859375 -5.109375 5.097656 -5.003906 5.328125 -4.859375 C 5.554688 -4.722656 5.738281 -4.523438 5.875 -4.265625 C 6.019531 -4.015625 6.09375 -3.71875 6.09375 -3.375 L 6.09375 0 L 4.328125 0 L 4.328125 -2.890625 C 4.328125 -3.160156 4.242188 -3.394531 4.078125 -3.59375 C 3.910156 -3.789062 3.691406 -3.890625 3.421875 -3.890625 C 3.148438 -3.890625 2.90625 -3.785156 2.6875 -3.578125 C 2.46875 -3.378906 2.359375 -3.148438 2.359375 -2.890625 L 2.359375 0 Z M 0.59375 0 "/></g></g></g><g fill="#ffffff" fill-opacity="1"><g transform="translate(119.604264, 45.495731)"><g><path d="M 3.328125 -3.828125 C 2.992188 -3.828125 2.707031 -3.703125 2.46875 -3.453125 C 2.226562 -3.203125 2.109375 -2.90625 2.109375 -2.5625 C 2.109375 -2.207031 2.226562 -1.90625 2.46875 -1.65625 C 2.707031 -1.414062 2.992188 -1.296875 3.328125 -1.296875 C 3.484375 -1.296875 3.632812 -1.316406 3.78125 -1.359375 C 3.925781 -1.398438 4.03125 -1.441406 4.09375 -1.484375 L 4.1875 -1.53125 L 4.78125 -0.3125 C 4.738281 -0.28125 4.675781 -0.238281 4.59375 -0.1875 C 4.507812 -0.132812 4.316406 -0.0664062 4.015625 0.015625 C 3.722656 0.109375 3.40625 0.15625 3.0625 0.15625 C 2.3125 0.15625 1.648438 -0.109375 1.078125 -0.640625 C 0.515625 -1.171875 0.234375 -1.804688 0.234375 -2.546875 C 0.234375 -3.296875 0.515625 -3.9375 1.078125 -4.46875 C 1.648438 -5 2.3125 -5.265625 3.0625 -5.265625 C 3.40625 -5.265625 3.71875 -5.222656 4 -5.140625 C 4.289062 -5.066406 4.492188 -4.988281 4.609375 -4.90625 L 4.78125 -4.796875 L 4.1875 -3.578125 C 3.96875 -3.742188 3.679688 -3.828125 3.328125 -3.828125 Z M 3.328125 -3.828125 "/></g></g></g><g fill="#ffffff" fill-opacity="1"><g transform="translate(124.509708, 45.495731)"><g><path d="M 5.78125 -2.3125 L 2.0625 -2.3125 C 2.0625 -1.957031 2.175781 -1.691406 2.40625 -1.515625 C 2.644531 -1.347656 2.898438 -1.265625 3.171875 -1.265625 C 3.460938 -1.265625 3.691406 -1.300781 3.859375 -1.375 C 4.023438 -1.445312 4.210938 -1.597656 4.421875 -1.828125 L 5.703125 -1.1875 C 5.171875 -0.289062 4.285156 0.15625 3.046875 0.15625 C 2.273438 0.15625 1.613281 -0.109375 1.0625 -0.640625 C 0.507812 -1.171875 0.234375 -1.804688 0.234375 -2.546875 C 0.234375 -3.296875 0.507812 -3.9375 1.0625 -4.46875 C 1.613281 -5 2.273438 -5.265625 3.046875 -5.265625 C 3.859375 -5.265625 4.519531 -5.03125 5.03125 -4.5625 C 5.539062 -4.09375 5.796875 -3.425781 5.796875 -2.5625 C 5.796875 -2.4375 5.789062 -2.351562 5.78125 -2.3125 Z M 2.109375 -3.296875 L 4.0625 -3.296875 C 4.019531 -3.554688 3.914062 -3.757812 3.75 -3.90625 C 3.582031 -4.050781 3.363281 -4.125 3.09375 -4.125 C 2.800781 -4.125 2.566406 -4.046875 2.390625 -3.890625 C 2.222656 -3.742188 2.128906 -3.546875 2.109375 -3.296875 Z M 2.109375 -3.296875 "/></g></g></g><g fill="#ffffff" fill-opacity="1"><g transform="translate(130.534119, 45.495731)"><g/></g></g><g fill="#ffffff" fill-opacity="1"><g transform="translate(133.261587, 45.495731)"><g><path d="M 3.75 0 L 2.546875 0 L -0.203125 -5.125 L 1.84375 -5.125 L 3.078125 -2.359375 L 4.3125 -5.125 L 5.53125 -5.125 L 6.765625 -2.359375 L 8 -5.125 L 10.046875 -5.125 L 7.296875 0 L 6.09375 0 L 4.921875 -2.640625 Z M 3.75 0 "/></g></g></g><g fill="#ffffff" fill-opacity="1"><g transform="translate(143.112439, 45.495731)"><g><path d="M 5.78125 -2.3125 L 2.0625 -2.3125 C 2.0625 -1.957031 2.175781 -1.691406 2.40625 -1.515625 C 2.644531 -1.347656 2.898438 -1.265625 3.171875 -1.265625 C 3.460938 -1.265625 3.691406 -1.300781 3.859375 -1.375 C 4.023438 -1.445312 4.210938 -1.597656 4.421875 -1.828125 L 5.703125 -1.1875 C 5.171875 -0.289062 4.285156 0.15625 3.046875 0.15625 C 2.273438 0.15625 1.613281 -0.109375 1.0625 -0.640625 C 0.507812 -1.171875 0.234375 -1.804688 0.234375 -2.546875 C 0.234375 -3.296875 0.507812 -3.9375 1.0625 -4.46875 C 1.613281 -5 2.273438 -5.265625 3.046875 -5.265625 C 3.859375 -5.265625 4.519531 -5.03125 5.03125 -4.5625 C 5.539062 -4.09375 5.796875 -3.425781 5.796875 -2.5625 C 5.796875 -2.4375 5.789062 -2.351562 5.78125 -2.3125 Z M 2.109375 -3.296875 L 4.0625 -3.296875 C 4.019531 -3.554688 3.914062 -3.757812 3.75 -3.90625 C 3.582031 -4.050781 3.363281 -4.125 3.09375 -4.125 C 2.800781 -4.125 2.566406 -4.046875 2.390625 -3.890625 C 2.222656 -3.742188 2.128906 -3.546875 2.109375 -3.296875 Z M 2.109375 -3.296875 "/></g></g></g><g fill="#ffffff" fill-opacity="1"><g transform="translate(149.13685, 45.495731)"><g><path d="M 5.875 -4.46875 C 6.351562 -3.945312 6.59375 -3.304688 6.59375 -2.546875 C 6.59375 -1.796875 6.351562 -1.15625 5.875 -0.625 C 5.394531 -0.101562 4.785156 0.15625 4.046875 0.15625 C 3.367188 0.15625 2.804688 -0.0859375 2.359375 -0.578125 L 2.34375 -0.578125 L 2.34375 0 L 0.59375 0 L 0.59375 -8.59375 L 2.359375 -8.59375 L 2.359375 -4.625 C 2.804688 -5.050781 3.367188 -5.265625 4.046875 -5.265625 C 4.785156 -5.265625 5.394531 -5 5.875 -4.46875 Z M 4.375 -1.6875 C 4.601562 -1.914062 4.71875 -2.203125 4.71875 -2.546875 C 4.71875 -2.898438 4.601562 -3.191406 4.375 -3.421875 C 4.144531 -3.648438 3.859375 -3.765625 3.515625 -3.765625 C 3.179688 -3.765625 2.898438 -3.648438 2.671875 -3.421875 C 2.441406 -3.191406 2.328125 -2.90625 2.328125 -2.5625 C 2.328125 -2.207031 2.4375 -1.914062 2.65625 -1.6875 C 2.882812 -1.46875 3.171875 -1.359375 3.515625 -1.359375 C 3.867188 -1.359375 4.15625 -1.46875 4.375 -1.6875 Z M 4.375 -1.6875 "/></g></g></g><g fill="#ffffff" fill-opacity="1"><g transform="translate(155.960513, 45.495731)"><g/></g></g><g fill="#ffffff" fill-opacity="1"><g transform="translate(158.687981, 45.495731)"><g><path d="M 2.828125 -5.265625 C 3.117188 -5.265625 3.40625 -5.234375 3.6875 -5.171875 C 3.976562 -5.109375 4.191406 -5.039062 4.328125 -4.96875 L 4.546875 -4.875 L 3.96875 -3.71875 C 3.5625 -3.925781 3.179688 -4.03125 2.828125 -4.03125 C 2.628906 -4.03125 2.488281 -4.007812 2.40625 -3.96875 C 2.320312 -3.925781 2.28125 -3.84375 2.28125 -3.71875 C 2.28125 -3.695312 2.28125 -3.671875 2.28125 -3.640625 C 2.289062 -3.617188 2.304688 -3.59375 2.328125 -3.5625 C 2.347656 -3.539062 2.363281 -3.519531 2.375 -3.5 C 2.394531 -3.488281 2.425781 -3.472656 2.46875 -3.453125 C 2.507812 -3.429688 2.539062 -3.414062 2.5625 -3.40625 C 2.582031 -3.394531 2.617188 -3.378906 2.671875 -3.359375 C 2.722656 -3.335938 2.757812 -3.320312 2.78125 -3.3125 C 2.8125 -3.3125 2.859375 -3.300781 2.921875 -3.28125 C 2.992188 -3.257812 3.046875 -3.242188 3.078125 -3.234375 C 3.285156 -3.171875 3.460938 -3.101562 3.609375 -3.03125 C 3.765625 -2.957031 3.925781 -2.859375 4.09375 -2.734375 C 4.269531 -2.609375 4.398438 -2.445312 4.484375 -2.25 C 4.578125 -2.0625 4.625 -1.84375 4.625 -1.59375 C 4.625 -0.425781 3.816406 0.15625 2.203125 0.15625 C 1.835938 0.15625 1.488281 0.0976562 1.15625 -0.015625 C 0.832031 -0.128906 0.597656 -0.242188 0.453125 -0.359375 L 0.234375 -0.546875 L 0.953125 -1.75 C 1.003906 -1.695312 1.070312 -1.640625 1.15625 -1.578125 C 1.238281 -1.515625 1.394531 -1.425781 1.625 -1.3125 C 1.851562 -1.207031 2.050781 -1.15625 2.21875 -1.15625 C 2.582031 -1.15625 2.765625 -1.28125 2.765625 -1.53125 C 2.765625 -1.644531 2.71875 -1.734375 2.625 -1.796875 C 2.53125 -1.859375 2.367188 -1.925781 2.140625 -2 C 1.921875 -2.082031 1.75 -2.15625 1.625 -2.21875 C 1.300781 -2.382812 1.046875 -2.570312 0.859375 -2.78125 C 0.679688 -3 0.59375 -3.28125 0.59375 -3.625 C 0.59375 -4.144531 0.789062 -4.546875 1.1875 -4.828125 C 1.59375 -5.117188 2.140625 -5.265625 2.828125 -5.265625 Z M 2.828125 -5.265625 "/></g></g></g><g fill="#ffffff" fill-opacity="1"><g transform="translate(163.603422, 45.495731)"><g><path d="M 0.953125 -0.625 C 0.472656 -1.15625 0.234375 -1.796875 0.234375 -2.546875 C 0.234375 -3.304688 0.472656 -3.945312 0.953125 -4.46875 C 1.429688 -5 2.039062 -5.265625 2.78125 -5.265625 C 3.457031 -5.265625 4.015625 -5.050781 4.453125 -4.625 L 4.453125 -5.125 L 6.21875 -5.125 L 6.21875 0 L 4.46875 0 L 4.46875 -0.578125 L 4.453125 -0.578125 C 4.015625 -0.0859375 3.457031 0.15625 2.78125 0.15625 C 2.039062 0.15625 1.429688 -0.101562 0.953125 -0.625 Z M 2.453125 -3.421875 C 2.222656 -3.191406 2.109375 -2.898438 2.109375 -2.546875 C 2.109375 -2.203125 2.21875 -1.914062 2.4375 -1.6875 C 2.65625 -1.46875 2.945312 -1.359375 3.3125 -1.359375 C 3.65625 -1.359375 3.9375 -1.46875 4.15625 -1.6875 C 4.382812 -1.914062 4.5 -2.207031 4.5 -2.5625 C 4.5 -2.90625 4.378906 -3.191406 4.140625 -3.421875 C 3.910156 -3.648438 3.632812 -3.765625 3.3125 -3.765625 C 2.96875 -3.765625 2.679688 -3.648438 2.453125 -3.421875 Z M 2.453125 -3.421875 "/></g></g></g><g fill="#ffffff" fill-opacity="1"><g transform="translate(170.427085, 45.495731)"><g><path d="M 0.59375 0 L 0.59375 -5.125 L 2.359375 -5.125 L 2.359375 -4.578125 L 2.390625 -4.578125 C 2.847656 -5.035156 3.335938 -5.265625 3.859375 -5.265625 C 4.109375 -5.265625 4.359375 -5.234375 4.609375 -5.171875 C 4.859375 -5.109375 5.097656 -5.003906 5.328125 -4.859375 C 5.554688 -4.722656 5.738281 -4.523438 5.875 -4.265625 C 6.019531 -4.015625 6.09375 -3.71875 6.09375 -3.375 L 6.09375 0 L 4.328125 0 L 4.328125 -2.890625 C 4.328125 -3.160156 4.242188 -3.394531 4.078125 -3.59375 C 3.910156 -3.789062 3.691406 -3.890625 3.421875 -3.890625 C 3.148438 -3.890625 2.90625 -3.785156 2.6875 -3.578125 C 2.46875 -3.378906 2.359375 -3.148438 2.359375 -2.890625 L 2.359375 0 Z M 0.59375 0 "/></g></g></g><g fill="#ffffff" fill-opacity="1"><g transform="translate(177.030956, 45.495731)"><g><path d="M 0.90625 -5.125 L 0.90625 -7.03125 L 2.671875 -7.03125 L 2.671875 -5.125 L 3.75 -5.125 L 3.75 -3.78125 L 2.671875 -3.78125 L 2.671875 -2.140625 C 2.671875 -1.671875 2.800781 -1.4375 3.0625 -1.4375 C 3.132812 -1.4375 3.207031 -1.445312 3.28125 -1.46875 C 3.351562 -1.5 3.40625 -1.53125 3.4375 -1.5625 L 3.5 -1.59375 L 3.9375 -0.171875 C 3.5625 0.046875 3.128906 0.15625 2.640625 0.15625 C 2.304688 0.15625 2.019531 0.0976562 1.78125 -0.015625 C 1.539062 -0.140625 1.359375 -0.296875 1.234375 -0.484375 C 1.117188 -0.679688 1.035156 -0.890625 0.984375 -1.109375 C 0.929688 -1.328125 0.90625 -1.5625 0.90625 -1.8125 L 0.90625 -3.78125 L 0.15625 -3.78125 L 0.15625 -5.125 Z M 0.90625 -5.125 "/></g></g></g><g fill="#ffffff" fill-opacity="1"><g transform="translate(180.97729, 45.495731)"><g><path d="M 2.421875 -6.625 L 4.453125 -8.390625 L 5.359375 -7.234375 L 2.984375 -5.859375 Z M 5.78125 -2.3125 L 2.0625 -2.3125 C 2.0625 -1.957031 2.175781 -1.691406 2.40625 -1.515625 C 2.644531 -1.347656 2.898438 -1.265625 3.171875 -1.265625 C 3.460938 -1.265625 3.691406 -1.300781 3.859375 -1.375 C 4.023438 -1.445312 4.210938 -1.597656 4.421875 -1.828125 L 5.703125 -1.1875 C 5.171875 -0.289062 4.285156 0.15625 3.046875 0.15625 C 2.273438 0.15625 1.613281 -0.109375 1.0625 -0.640625 C 0.507812 -1.171875 0.234375 -1.804688 0.234375 -2.546875 C 0.234375 -3.296875 0.507812 -3.9375 1.0625 -4.46875 C 1.613281 -5 2.273438 -5.265625 3.046875 -5.265625 C 3.859375 -5.265625 4.519531 -5.03125 5.03125 -4.5625 C 5.539062 -4.09375 5.796875 -3.425781 5.796875 -2.5625 C 5.796875 -2.4375 5.789062 -2.351562 5.78125 -2.3125 Z M 2.109375 -3.296875 L 4.0625 -3.296875 C 4.019531 -3.554688 3.914062 -3.757812 3.75 -3.90625 C 3.582031 -4.050781 3.363281 -4.125 3.09375 -4.125 C 2.800781 -4.125 2.566406 -4.046875 2.390625 -3.890625 C 2.222656 -3.742188 2.128906 -3.546875 2.109375 -3.296875 Z M 2.109375 -3.296875 "/></g></g></g></svg>